<svg version="1.1" xmlns="http://www.w3.org/2000/svg" viewBox="0 0 1256 1284">
<path fill="#F8B809" d="M 376.944 755.412 C 373.348 752.73 360.499 739.334 356.569 735.278 C 315.015 692.959 283.199 642.08 263.341 586.194 C 223.524 474.081 230.178 333.646 281.732 226.63 C 324.026 138.836 395.332 61.8561 489.07 30.0813 C 541.735 12.2294 589.342 4.81993 644.655 6.50518 C 665.169 6.68022 685.901 6.10701 706.342 7.94386 C 910.778 26.3144 1086.91 159.588 1180.44 339.178 C 1199.37 375.523 1211.45 407.214 1224.96 445.811 C 1232.7 472.8 1236.41 483.814 1239.56 511.177 C 1229.7 500.601 1218.21 481.378 1209.37 468.894 C 1101.05 335.94 907.43 302.673 745.435 320.298 C 648.264 330.87 549.065 354.36 471.733 417.739 C 416.525 463.08 374.022 532.259 366.849 604.245 C 363.471 638.42 366.321 672.924 375.261 706.082 C 377.834 715.525 382.371 725.707 384.69 734.748 C 386.561 739.749 403.063 775.735 403.065 775.424 C 396.65 776.746 381.129 760.257 376.944 755.412 z"/>
<path fill="#3798D4" d="M 541.636 1259.96 C 475.536 1250.18 411.497 1229.58 352.088 1199 C 347.442 1196.63 328.442 1187.4 325.737 1185.14 L 325.794 1183.38 C 326.912 1183.03 376.389 1191.69 383.032 1192.24 C 447.016 1197.56 499.097 1188.87 559.347 1165.21 C 691.636 1111.8 800.729 1013.25 867.278 887.058 C 922.673 782.499 945.387 656.29 909.605 541.722 C 889.134 476.18 844.812 405.148 782.483 372.309 C 779.36 370.664 768.572 366.663 767.424 365.263 C 774.008 359.378 866.112 361.426 880.217 362.543 C 971.16 369.888 1061.97 398.478 1133.77 456.298 C 1166.32 482.504 1191.8 514.025 1212.68 549.841 C 1251.69 616.788 1253.47 682.435 1239.34 756.555 C 1212.68 896.305 1133.54 1020.06 1027.57 1113.55 C 928.969 1200.72 806.41 1257.61 674.575 1265.26 C 643.482 1267.07 611.555 1265.46 580.455 1264.79 C 568.965 1262.94 553.615 1261.51 541.636 1259.96 z"/>
<path fill="#F32826" d="M 322.676 95.0469 C 321.779 99.2034 306.424 113.472 302.619 117.767 C 220.807 210.124 189.218 334.128 193.005 454.081 C 196.068 575.829 247.455 691.354 335.823 775.156 C 400.205 835.442 486.35 889.926 573.849 906.856 C 670.269 925.512 780.077 899.848 848.416 826.532 C 843.83 840.938 835.165 857.306 828.143 870.788 C 788.381 947.125 727.901 1010.41 658.467 1060.58 C 555.013 1133.06 430.956 1171.54 306.448 1134.54 C 203.006 1103.81 125.786 1012.3 76.9385 920.189 C 3.46803 778.298 -11.0769 613.156 36.4607 460.607 C 74.9521 337.639 148.541 228.6 248.177 146.899 C 270.688 128.389 296.789 108.716 322.676 95.0469 z"/>
</svg>
