<svg width="36" height="36" viewBox="0 0 36 36" fill="none" xmlns="http://www.w3.org/2000/svg">
  <circle cx="18" cy="18" r="18" fill="white"/>
  <path d="M 4.1 10 A 16 16 0 0 1 31.9 10 Q 25 7 18 11 A 7 7 0 0 0 11.9 21.5 Q 4 17 4.1 10 Z" fill="#F7B400"/>
  <path d="M 18 34 A 16 16 0 0 1 4.1 10 Q 4 17 11.9 21.5 A 7 7 0 0 0 24.1 21.5 Q 26 28 18 34 Z" fill="#E53030"/>
  <path d="M 31.9 10 A 16 16 0 0 1 18 34 Q 26 28 24.1 21.5 A 7 7 0 0 0 18 11 Q 25 7 31.9 10 Z" fill="#3BAEE0"/>
  <circle cx="18" cy="18" r="7" fill="white"/>
</svg>
