<svg xmlns="http://www.w3.org/2000/svg" viewBox="0 0 24 24" fill="#2932E1">
  <path d="M5.927 12.497c2.063-.443 1.782-2.909 1.72-3.448-.109-.972-1.128-2.672-2.83-2.548-2.177.156-2.416 2.844-2.416 2.844-.34 1.728.463 3.596 1.526 3.596.34 0 .34 0 2-.444zm2.844 6.54c-.042-.028-1.097-.734-1.773-.374-.538.288-.664 1.47-.677 1.605l-.004.038c-.014.137-.055.527.21.756.389.334 1.588.426 2.84.042 1.192-.368 1.398-1.004 1.368-1.366-.03-.363-.28-.484-1.964-.701zm5.953.49c1.122.33 2.234.276 2.6-.047.235-.217.195-.6.18-.733l-.004-.04c-.013-.132-.14-1.286-.652-1.558-.65-.346-1.674.319-1.713.344-1.633.244-1.875.365-1.903.718-.028.352.172.97 1.492 1.316zm3.25-6.946c1.054 0 1.84-1.855 1.84-3.573 0 0-.237-2.668-2.394-2.82-1.688-.12-2.698 1.563-2.806 2.527-.063.534-.344 2.978 1.695 3.421 1.644.445 1.664.445 1.664.445zM12 9.316c2.055 0 3.72-2.067 3.72-4.617C15.72 2.146 14.055 0 12 0S8.28 2.147 8.28 4.699c0 2.55 1.666 4.617 3.72 4.617zm5.302 3.396c-.85-2.4-3.048-3.833-5.302-3.833-2.255 0-4.452 1.433-5.304 3.833-1.117 3.149.028 8.122 5.304 8.122s6.42-4.973 5.302-8.122z"/>
</svg>
