<svg xmlns="http://www.w3.org/2000/svg" viewBox="0 0 24 24">
  <defs>
    <linearGradient id="meta-a" x1="0%" y1="0%" x2="100%" y2="0%">
      <stop offset="0%" stop-color="#0064E0"/>
      <stop offset="40%" stop-color="#0064E0"/>
      <stop offset="83%" stop-color="#0080FF"/>
      <stop offset="100%" stop-color="#00C7FF"/>
    </linearGradient>
    <linearGradient id="meta-b" x1="0%" y1="0%" x2="0%" y2="100%">
      <stop offset="0%" stop-color="#0082FB"/>
      <stop offset="100%" stop-color="#0064E0"/>
    </linearGradient>
  </defs>
  <!-- Meta infinity/M loop mark -->
  <path d="M2.5 14.6C2.5 17.12 3.73 18.75 5.45 18.75c1.55 0 2.44-0.92 3.76-3.07l1.44-2.33-3.16-5.13C6.63 6.65 5.93 6.25 5.2 6.25 3.67 6.25 2.5 8.35 2.5 11.16v3.44z" fill="url(#meta-b)"/>
  <path d="M11.94 8.96l-0.86-1.43c-1.26-2.1-2.36-3.28-3.9-3.28-2.27 0-3.68 2.2-3.68 5.91v.44c0-3.71 1.41-5.91 3.68-5.91 1.54 0 2.64 1.18 3.9 3.28l.86 1.43v-0.44z" fill="url(#meta-a)" opacity="0.6"/>
  <path d="M9.21 15.68C8 17.73 6.96 18.75 5.45 18.75c-1.72 0-2.95-1.63-2.95-4.15v-3.44c0-2.81 1.17-4.91 2.7-4.91.73 0 1.43.4 2.29 1.77l.5.81 1.72 2.8-1.5 2.05z" fill="#0082FB"/>
  <path d="M14.55 8.25c-1.54 0-2.64 1.18-3.9 3.28L9.21 13.4l1.5-2.05 1.44-2.33C13.41 6.97 14.41 5.25 16 5.25c1.53 0 2.7 2.1 2.7 4.91v3.44c0 2.52-1.23 4.15-2.95 4.15-1.51 0-2.55-1.02-3.76-3.07l-0.74-1.23 1.5-2.41.86 1.43c.9 1.51 1.72 2.28 2.24 2.28.72 0 1.11-0.82 1.11-2.15v-3.44c0-2.81-1.17-4.91-2.41-4.91z" fill="url(#meta-a)"/>
</svg>
